<?xml version="1.0" encoding="utf-8"?>
<!-- Generator: Adobe Illustrator 28.6.0, SVG Export Plug-In . SVG Version: 6.00 Build 0)  -->
<svg version="1.1" id="Layer_1" xmlns="http://www.w3.org/2000/svg" xmlns:xlink="http://www.w3.org/1999/xlink"
	 x="0px" y="0px" viewBox="0 0 1920 1080" style="enable-background:new 0 0 1920 1080;" xml:space="preserve">
<style type="text/css">
	.st0{fill:#0E1116;}
	.st1{fill:#1A2029;}
	.st2{fill:#F6A623;}
	.st3{fill:#FFFFFF;}
	.st4{fill:#2B3441;}
	.st5{fill:#2E7D4F;}
	.st6{fill:#8E2F2F;}
	.st7{font-family:'Archivo-Bold';}
	.st8{font-size:46px;}
	.st9{font-family:'Inter-Medium';}
	.st10{font-size:34px;}
	.st11{font-family:'Archivo-Bold';font-size:20px;letter-spacing:4;}
	.st12{display:none;}
</style>
<g id="Card">
	<rect x="340" y="220" class="st0" width="1240" height="120"/>
	<rect x="340" y="220" class="st2" width="12" height="120"/>
</g>
<g id="Rows">
	<rect x="340" y="380" class="st1" width="1240" height="100"/>
	<rect x="340" y="496" class="st1" width="1240" height="100"/>
	<rect x="340" y="612" class="st1" width="1240" height="100"/>
	<rect x="340" y="728" class="st1" width="1240" height="100"/>
</g>
<!-- The moments. All four rows get a pick look and a verdict look; the badge is board-wide.
     Every one of them is switched off in the layers panel so the base artwork stays visible. -->
<g id="Pick_x20_1" data-name="Pick 1" class="st12">
	<rect x="340" y="380" class="st4" width="1240" height="100"/>
	<rect x="340" y="380" class="st2" width="12" height="100"/>
</g>
<g id="Pick_x20_2" data-name="Pick 2" class="st12">
	<rect x="340" y="496" class="st4" width="1240" height="100"/>
	<rect x="340" y="496" class="st2" width="12" height="100"/>
</g>
<g id="Pick_x20_3" data-name="Pick 3" class="st12">
	<rect x="340" y="612" class="st4" width="1240" height="100"/>
	<rect x="340" y="612" class="st2" width="12" height="100"/>
</g>
<g id="Pick_x20_4" data-name="Pick 4" class="st12">
	<rect x="340" y="728" class="st4" width="1240" height="100"/>
	<rect x="340" y="728" class="st2" width="12" height="100"/>
</g>
<g id="Right_x20_1" data-name="Right 1" class="st12">
	<rect x="340" y="380" class="st5" width="1240" height="100"/>
</g>
<g id="Right_x20_2" data-name="Right 2" class="st12">
	<rect x="340" y="496" class="st5" width="1240" height="100"/>
</g>
<g id="Right_x20_3" data-name="Right 3" class="st12">
	<rect x="340" y="612" class="st5" width="1240" height="100"/>
</g>
<g id="Right_x20_4" data-name="Right 4" class="st12">
	<rect x="340" y="728" class="st5" width="1240" height="100"/>
</g>
<g id="Wrong_x20_1" data-name="Wrong 1" class="st12">
	<rect x="340" y="380" class="st6" width="1240" height="100"/>
</g>
<g id="Wrong_x20_2" data-name="Wrong 2" class="st12">
	<rect x="340" y="496" class="st6" width="1240" height="100"/>
</g>
<g id="Wrong_x20_3" data-name="Wrong 3" class="st12">
	<rect x="340" y="612" class="st6" width="1240" height="100"/>
</g>
<g id="Wrong_x20_4" data-name="Wrong 4" class="st12">
	<rect x="340" y="728" class="st6" width="1240" height="100"/>
</g>
<g id="Locked" class="st12">
	<rect x="1300" y="240" class="st2" width="240" height="44"/>
	<text transform="matrix(1 0 0 1 1420 271)" class="st0 st11" text-anchor="middle">LUKITTU</text>
</g>
<!-- The words go last, so nothing drawn above paints over them. -->
<text id="Question_x20_text" data-name="Question text" transform="matrix(1 0 0 1 384 296)" class="st3 st7 st8">Mika on Suomen korkein tunturi?</text>
<text id="Option_x20_1" data-name="Option 1" transform="matrix(1 0 0 1 384 443)" class="st3 st9 st10">Halti</text>
<text id="Option_x20_2" data-name="Option 2" transform="matrix(1 0 0 1 384 559)" class="st3 st9 st10">Saana</text>
<text id="Option_x20_3" data-name="Option 3" transform="matrix(1 0 0 1 384 675)" class="st3 st9 st10">Ylläs</text>
<text id="Option_x20_4" data-name="Option 4" transform="matrix(1 0 0 1 384 791)" class="st3 st9 st10">Ruka</text>
</svg>
